<?xml version="1.0" encoding="UTF-8" standalone="no"?>
<!DOCTYPE svg PUBLIC "-//W3C//DTD SVG 1.1//EN"
 "http://www.w3.org/Graphics/SVG/1.1/DTD/svg11.dtd">
<!-- Generated by graphviz version 2.47.0 (20210316.0004)
 -->
<!-- Title: dependencies Pages: 1 -->
<svg width="1172pt" height="306pt"
 viewBox="0.00 0.00 1172.00 306.40" xmlns="http://www.w3.org/2000/svg" xmlns:xlink="http://www.w3.org/1999/xlink">
<g id="graph0" class="graph" transform="scale(1 1) rotate(0) translate(4 302.4)">
<title>dependencies</title>
<polygon fill="white" stroke="transparent" points="-4,4 -4,-302.4 1168,-302.4 1168,4 -4,4"/>
<text text-anchor="start" x="561.01" y="-42.4" font-family="sans-serif" font-weight="bold" font-size="14.00">Legend</text>
<polygon fill="#ffffb3" stroke="transparent" points="348,-10 348,-30 368,-30 368,-10 348,-10"/>
<text text-anchor="start" x="371.63" y="-15.4" font-family="sans-serif" font-size="14.00"> &#160;Declarations</text>
<polygon fill="#8dd3c7" stroke="transparent" points="461,-10 461,-30 481,-30 481,-10 461,-10"/>
<text text-anchor="start" x="484.73" y="-15.4" font-family="sans-serif" font-size="14.00"> &#160;Module</text>
<polygon fill="#80b1d3" stroke="transparent" points="547,-10 547,-30 567,-30 567,-10 547,-10"/>
<text text-anchor="start" x="570.78" y="-15.4" font-family="sans-serif" font-size="14.00"> &#160;Bootstrap</text>
<polygon fill="#fdb462" stroke="transparent" points="644,-10 644,-30 664,-30 664,-10 644,-10"/>
<text text-anchor="start" x="667.67" y="-15.4" font-family="sans-serif" font-size="14.00"> &#160;Providers</text>
<polygon fill="#fb8072" stroke="transparent" points="740,-10 740,-30 760,-30 760,-10 740,-10"/>
<text text-anchor="start" x="763.73" y="-15.4" font-family="sans-serif" font-size="14.00"> &#160;Exports</text>
<g id="clust1" class="cluster">
<title>cluster_TranslationAdminModule</title>
<polygon fill="none" stroke="black" stroke-dasharray="1,5" points="8,-70 8,-290.4 1156,-290.4 1156,-70 8,-70"/>
</g>
<g id="clust4" class="cluster">
<title>cluster_TranslationAdminModule_exports</title>
<polygon fill="none" stroke="black" points="16,-208 16,-282.4 1148,-282.4 1148,-208 16,-208"/>
</g>
<g id="clust6" class="cluster">
<title>cluster_TranslationAdminModule_providers</title>
<polygon fill="none" stroke="black" points="585,-78 585,-130 769,-130 769,-78 585,-78"/>
</g>
<!-- TranslationService  -->
<g id="node1" class="node">
<title>TranslationService </title>
<polygon fill="#fb8072" stroke="black" points="1139.74,-263.2 1014.26,-263.2 1014.26,-227.2 1139.74,-227.2 1139.74,-263.2"/>
<text text-anchor="middle" x="1077" y="-241" font-family="Times,serif" font-size="14.00">TranslationService </text>
</g>
<!-- {
 &#160;&#160;&#160;provide: , useValue: ADMIN_TRANSLATIONS,
}  -->
<g id="node2" class="node">
<title>{
 &#160;&#160;&#160;provide: , useValue: ADMIN_TRANSLATIONS,
} </title>
<polygon fill="#fb8072" stroke="black" points="996.31,-274.6 685.69,-274.6 685.69,-215.8 996.31,-215.8 996.31,-274.6"/>
<text text-anchor="middle" x="841" y="-257.8" font-family="Times,serif" font-size="14.00">{</text>
<text text-anchor="middle" x="841" y="-241" font-family="Times,serif" font-size="14.00"> &#160;&#160;&#160;provide: , useValue: ADMIN_TRANSLATIONS,</text>
<text text-anchor="middle" x="841" y="-224.2" font-family="Times,serif" font-size="14.00">} </text>
</g>
<!-- {
 &#160;&#160;&#160;provide: , useValue: EMAIL_TRANSLATIONS,
}  -->
<g id="node3" class="node">
<title>{
 &#160;&#160;&#160;provide: , useValue: EMAIL_TRANSLATIONS,
} </title>
<polygon fill="#fb8072" stroke="black" points="667.7,-274.6 360.3,-274.6 360.3,-215.8 667.7,-215.8 667.7,-274.6"/>
<text text-anchor="middle" x="514" y="-257.8" font-family="Times,serif" font-size="14.00">{</text>
<text text-anchor="middle" x="514" y="-241" font-family="Times,serif" font-size="14.00"> &#160;&#160;&#160;provide: , useValue: EMAIL_TRANSLATIONS,</text>
<text text-anchor="middle" x="514" y="-224.2" font-family="Times,serif" font-size="14.00">} </text>
</g>
<!-- {
 &#160;&#160;&#160;provide: , useValue: TRADER_TRANSLATIONS,
}  -->
<g id="node4" class="node">
<title>{
 &#160;&#160;&#160;provide: , useValue: TRADER_TRANSLATIONS,
} </title>
<polygon fill="#fb8072" stroke="black" points="342.38,-274.6 23.62,-274.6 23.62,-215.8 342.38,-215.8 342.38,-274.6"/>
<text text-anchor="middle" x="183" y="-257.8" font-family="Times,serif" font-size="14.00">{</text>
<text text-anchor="middle" x="183" y="-241" font-family="Times,serif" font-size="14.00"> &#160;&#160;&#160;provide: , useValue: TRADER_TRANSLATIONS,</text>
<text text-anchor="middle" x="183" y="-224.2" font-family="Times,serif" font-size="14.00">} </text>
</g>
<!-- TranslationAdminModule -->
<g id="node5" class="node">
<title>TranslationAdminModule</title>
<polygon fill="#8dd3c7" stroke="black" points="758.2,-187 755.2,-191 734.2,-191 731.2,-187 595.8,-187 595.8,-151 758.2,-151 758.2,-187"/>
<text text-anchor="middle" x="677" y="-164.8" font-family="Times,serif" font-size="14.00">TranslationAdminModule</text>
</g>
<!-- TranslationAdminModule&#45;&gt;TranslationService  -->
<g id="edge1" class="edge">
<title>TranslationAdminModule&#45;&gt;TranslationService </title>
<path fill="none" stroke="black" stroke-dasharray="5,2" d="M758.43,-169.4C875.38,-169.4 1077,-169.4 1077,-169.4 1077,-169.4 1077,-216.85 1077,-216.85"/>
<polygon fill="black" stroke="black" points="1073.5,-216.85 1077,-226.85 1080.5,-216.85 1073.5,-216.85"/>
</g>
<!-- TranslationAdminModule&#45;&gt;{
 &#160;&#160;&#160;provide: , useValue: ADMIN_TRANSLATIONS,
}  -->
<g id="edge2" class="edge">
<title>TranslationAdminModule&#45;&gt;{
 &#160;&#160;&#160;provide: , useValue: ADMIN_TRANSLATIONS,
} </title>
<path fill="none" stroke="black" stroke-dasharray="5,2" d="M721.97,-187.06C721.97,-187.06 721.97,-205.95 721.97,-205.95"/>
<polygon fill="black" stroke="black" points="718.47,-205.95 721.97,-215.95 725.47,-205.95 718.47,-205.95"/>
</g>
<!-- TranslationAdminModule&#45;&gt;{
 &#160;&#160;&#160;provide: , useValue: EMAIL_TRANSLATIONS,
}  -->
<g id="edge3" class="edge">
<title>TranslationAdminModule&#45;&gt;{
 &#160;&#160;&#160;provide: , useValue: EMAIL_TRANSLATIONS,
} </title>
<path fill="none" stroke="black" stroke-dasharray="5,2" d="M631.75,-187.06C631.75,-187.06 631.75,-205.95 631.75,-205.95"/>
<polygon fill="black" stroke="black" points="628.25,-205.95 631.75,-215.95 635.25,-205.95 628.25,-205.95"/>
</g>
<!-- TranslationAdminModule&#45;&gt;{
 &#160;&#160;&#160;provide: , useValue: TRADER_TRANSLATIONS,
}  -->
<g id="edge4" class="edge">
<title>TranslationAdminModule&#45;&gt;{
 &#160;&#160;&#160;provide: , useValue: TRADER_TRANSLATIONS,
} </title>
<path fill="none" stroke="black" stroke-dasharray="5,2" d="M595.7,-169.4C455.47,-169.4 183,-169.4 183,-169.4 183,-169.4 183,-205.68 183,-205.68"/>
<polygon fill="black" stroke="black" points="179.5,-205.68 183,-215.68 186.5,-205.68 179.5,-205.68"/>
</g>
<!-- TranslationService -->
<g id="node6" class="node">
<title>TranslationService</title>
<ellipse fill="#fdb462" stroke="black" cx="677" cy="-104" rx="83.94" ry="18"/>
<text text-anchor="middle" x="677" y="-99.8" font-family="Times,serif" font-size="14.00">TranslationService</text>
</g>
<!-- TranslationService&#45;&gt;TranslationAdminModule -->
<g id="edge5" class="edge">
<title>TranslationService&#45;&gt;TranslationAdminModule</title>
<path fill="none" stroke="black" d="M677,-122.11C677,-122.11 677,-140.99 677,-140.99"/>
<polygon fill="black" stroke="black" points="673.5,-140.99 677,-150.99 680.5,-140.99 673.5,-140.99"/>
</g>
</g>
</svg>
