<?xml version="1.0" encoding="UTF-8" standalone="no"?>
<!DOCTYPE svg PUBLIC "-//W3C//DTD SVG 1.1//EN"
 "http://www.w3.org/Graphics/SVG/1.1/DTD/svg11.dtd">
<!-- Generated by graphviz version 2.47.0 (20210316.0004)
 -->
<!-- Title: dependencies Pages: 1 -->
<svg width="892pt" height="211pt"
 viewBox="0.00 0.00 892.00 211.00" xmlns="http://www.w3.org/2000/svg" xmlns:xlink="http://www.w3.org/1999/xlink">
<g id="graph0" class="graph" transform="scale(1 1) rotate(0) translate(4 207)">
<title>dependencies</title>
<polygon fill="white" stroke="transparent" points="-4,4 -4,-207 888,-207 888,4 -4,4"/>
<text text-anchor="start" x="421.01" y="-42.4" font-family="sans-serif" font-weight="bold" font-size="14.00">Legend</text>
<polygon fill="#ffffb3" stroke="transparent" points="208,-10 208,-30 228,-30 228,-10 208,-10"/>
<text text-anchor="start" x="231.63" y="-15.4" font-family="sans-serif" font-size="14.00"> &#160;Declarations</text>
<polygon fill="#8dd3c7" stroke="transparent" points="321,-10 321,-30 341,-30 341,-10 321,-10"/>
<text text-anchor="start" x="344.73" y="-15.4" font-family="sans-serif" font-size="14.00"> &#160;Module</text>
<polygon fill="#80b1d3" stroke="transparent" points="407,-10 407,-30 427,-30 427,-10 407,-10"/>
<text text-anchor="start" x="430.78" y="-15.4" font-family="sans-serif" font-size="14.00"> &#160;Bootstrap</text>
<polygon fill="#fdb462" stroke="transparent" points="504,-10 504,-30 524,-30 524,-10 504,-10"/>
<text text-anchor="start" x="527.67" y="-15.4" font-family="sans-serif" font-size="14.00"> &#160;Providers</text>
<polygon fill="#fb8072" stroke="transparent" points="600,-10 600,-30 620,-30 620,-10 600,-10"/>
<text text-anchor="start" x="623.73" y="-15.4" font-family="sans-serif" font-size="14.00"> &#160;Exports</text>
<g id="clust1" class="cluster">
<title>cluster_GlobalAdminModule</title>
<polygon fill="none" stroke="black" stroke-dasharray="1,5" points="8,-70 8,-195 876,-195 876,-70 8,-70"/>
</g>
<g id="clust3" class="cluster">
<title>cluster_GlobalAdminModule_imports</title>
<polygon fill="none" stroke="black" points="16,-78 16,-130 868,-130 868,-78 16,-78"/>
</g>
<!-- AccountTypeModule -->
<g id="node1" class="node">
<title>AccountTypeModule</title>
<polygon fill="#8dd3c7" stroke="black" points="859.74,-122 856.74,-126 835.74,-126 832.74,-122 724.26,-122 724.26,-86 859.74,-86 859.74,-122"/>
<text text-anchor="middle" x="792" y="-99.8" font-family="Times,serif" font-size="14.00">AccountTypeModule</text>
</g>
<!-- GlobalAdminModule -->
<g id="node7" class="node">
<title>GlobalAdminModule</title>
<polygon fill="#8dd3c7" stroke="black" points="500.04,-187 497.04,-191 476.04,-191 473.04,-187 363.96,-187 363.96,-151 500.04,-151 500.04,-187"/>
<text text-anchor="middle" x="432" y="-164.8" font-family="Times,serif" font-size="14.00">GlobalAdminModule</text>
</g>
<!-- AccountTypeModule&#45;&gt;GlobalAdminModule -->
<g id="edge1" class="edge">
<title>AccountTypeModule&#45;&gt;GlobalAdminModule</title>
<path fill="none" stroke="black" d="M792,-122.28C792,-143.32 792,-175 792,-175 792,-175 510.14,-175 510.14,-175"/>
<polygon fill="black" stroke="black" points="510.14,-171.5 500.14,-175 510.14,-178.5 510.14,-171.5"/>
</g>
<!-- DatabaseModule -->
<g id="node2" class="node">
<title>DatabaseModule</title>
<polygon fill="#8dd3c7" stroke="black" points="706.35,-122 703.35,-126 682.35,-126 679.35,-122 595.65,-122 595.65,-86 706.35,-86 706.35,-122"/>
<text text-anchor="middle" x="651" y="-99.8" font-family="Times,serif" font-size="14.00">DatabaseModule</text>
</g>
<!-- DatabaseModule&#45;&gt;GlobalAdminModule -->
<g id="edge2" class="edge">
<title>DatabaseModule&#45;&gt;GlobalAdminModule</title>
<path fill="none" stroke="black" d="M651,-122.02C651,-139.37 651,-163 651,-163 651,-163 510.09,-163 510.09,-163"/>
<polygon fill="black" stroke="black" points="510.09,-159.5 500.09,-163 510.09,-166.5 510.09,-159.5"/>
</g>
<!-- LanguageAdminModule -->
<g id="node3" class="node">
<title>LanguageAdminModule</title>
<polygon fill="#8dd3c7" stroke="black" points="577.63,-122 574.63,-126 553.63,-126 550.63,-122 424.37,-122 424.37,-86 577.63,-86 577.63,-122"/>
<text text-anchor="middle" x="501" y="-99.8" font-family="Times,serif" font-size="14.00">LanguageAdminModule</text>
</g>
<!-- LanguageAdminModule&#45;&gt;GlobalAdminModule -->
<g id="edge3" class="edge">
<title>LanguageAdminModule&#45;&gt;GlobalAdminModule</title>
<path fill="none" stroke="black" d="M462.23,-122.11C462.23,-122.11 462.23,-140.99 462.23,-140.99"/>
<polygon fill="black" stroke="black" points="458.73,-140.99 462.23,-150.99 465.73,-140.99 458.73,-140.99"/>
</g>
<!-- TaskModule -->
<g id="node4" class="node">
<title>TaskModule</title>
<polygon fill="#8dd3c7" stroke="black" points="406.26,-122 403.26,-126 382.26,-126 379.26,-122 319.74,-122 319.74,-86 406.26,-86 406.26,-122"/>
<text text-anchor="middle" x="363" y="-99.8" font-family="Times,serif" font-size="14.00">TaskModule</text>
</g>
<!-- TaskModule&#45;&gt;GlobalAdminModule -->
<g id="edge4" class="edge">
<title>TaskModule&#45;&gt;GlobalAdminModule</title>
<path fill="none" stroke="black" d="M385.06,-122.11C385.06,-122.11 385.06,-140.99 385.06,-140.99"/>
<polygon fill="black" stroke="black" points="381.56,-140.99 385.06,-150.99 388.56,-140.99 381.56,-140.99"/>
</g>
<!-- TraderModule -->
<g id="node5" class="node">
<title>TraderModule</title>
<polygon fill="#8dd3c7" stroke="black" points="301.35,-122 298.35,-126 277.35,-126 274.35,-122 204.65,-122 204.65,-86 301.35,-86 301.35,-122"/>
<text text-anchor="middle" x="253" y="-99.8" font-family="Times,serif" font-size="14.00">TraderModule</text>
</g>
<!-- TraderModule&#45;&gt;GlobalAdminModule -->
<g id="edge5" class="edge">
<title>TraderModule&#45;&gt;GlobalAdminModule</title>
<path fill="none" stroke="black" d="M253,-122.02C253,-139.37 253,-163 253,-163 253,-163 353.82,-163 353.82,-163"/>
<polygon fill="black" stroke="black" points="353.82,-166.5 363.82,-163 353.82,-159.5 353.82,-166.5"/>
</g>
<!-- TranslationAdminModule -->
<g id="node6" class="node">
<title>TranslationAdminModule</title>
<polygon fill="#8dd3c7" stroke="black" points="186.2,-122 183.2,-126 162.2,-126 159.2,-122 23.8,-122 23.8,-86 186.2,-86 186.2,-122"/>
<text text-anchor="middle" x="105" y="-99.8" font-family="Times,serif" font-size="14.00">TranslationAdminModule</text>
</g>
<!-- TranslationAdminModule&#45;&gt;GlobalAdminModule -->
<g id="edge6" class="edge">
<title>TranslationAdminModule&#45;&gt;GlobalAdminModule</title>
<path fill="none" stroke="black" d="M105,-122.28C105,-143.32 105,-175 105,-175 105,-175 353.85,-175 353.85,-175"/>
<polygon fill="black" stroke="black" points="353.85,-178.5 363.85,-175 353.85,-171.5 353.85,-178.5"/>
</g>
</g>
</svg>
