<?xml version="1.0" encoding="UTF-8" standalone="no"?>
<!DOCTYPE svg PUBLIC "-//W3C//DTD SVG 1.1//EN"
 "http://www.w3.org/Graphics/SVG/1.1/DTD/svg11.dtd">
<!-- Generated by graphviz version 2.47.0 (20210316.0004)
 -->
<!-- Title: dependencies Pages: 1 -->
<svg width="930pt" height="211pt"
 viewBox="0.00 0.00 930.00 211.00" xmlns="http://www.w3.org/2000/svg" xmlns:xlink="http://www.w3.org/1999/xlink">
<g id="graph0" class="graph" transform="scale(1 1) rotate(0) translate(4 207)">
<title>dependencies</title>
<polygon fill="white" stroke="transparent" points="-4,4 -4,-207 926,-207 926,4 -4,4"/>
<text text-anchor="start" x="440.01" y="-42.4" font-family="sans-serif" font-weight="bold" font-size="14.00">Legend</text>
<polygon fill="#ffffb3" stroke="transparent" points="227,-10 227,-30 247,-30 247,-10 227,-10"/>
<text text-anchor="start" x="250.63" y="-15.4" font-family="sans-serif" font-size="14.00"> &#160;Declarations</text>
<polygon fill="#8dd3c7" stroke="transparent" points="340,-10 340,-30 360,-30 360,-10 340,-10"/>
<text text-anchor="start" x="363.73" y="-15.4" font-family="sans-serif" font-size="14.00"> &#160;Module</text>
<polygon fill="#80b1d3" stroke="transparent" points="426,-10 426,-30 446,-30 446,-10 426,-10"/>
<text text-anchor="start" x="449.78" y="-15.4" font-family="sans-serif" font-size="14.00"> &#160;Bootstrap</text>
<polygon fill="#fdb462" stroke="transparent" points="523,-10 523,-30 543,-30 543,-10 523,-10"/>
<text text-anchor="start" x="546.67" y="-15.4" font-family="sans-serif" font-size="14.00"> &#160;Providers</text>
<polygon fill="#fb8072" stroke="transparent" points="619,-10 619,-30 639,-30 639,-10 619,-10"/>
<text text-anchor="start" x="642.73" y="-15.4" font-family="sans-serif" font-size="14.00"> &#160;Exports</text>
<g id="clust1" class="cluster">
<title>cluster_GlobalTraderModule</title>
<polygon fill="none" stroke="black" stroke-dasharray="1,5" points="8,-70 8,-195 914,-195 914,-70 8,-70"/>
</g>
<g id="clust3" class="cluster">
<title>cluster_GlobalTraderModule_imports</title>
<polygon fill="none" stroke="black" points="16,-78 16,-130 906,-130 906,-78 16,-78"/>
</g>
<!-- AccountTypeModule -->
<g id="node1" class="node">
<title>AccountTypeModule</title>
<polygon fill="#8dd3c7" stroke="black" points="897.74,-122 894.74,-126 873.74,-126 870.74,-122 762.26,-122 762.26,-86 897.74,-86 897.74,-122"/>
<text text-anchor="middle" x="830" y="-99.8" font-family="Times,serif" font-size="14.00">AccountTypeModule</text>
</g>
<!-- GlobalTraderModule -->
<g id="node7" class="node">
<title>GlobalTraderModule</title>
<polygon fill="#8dd3c7" stroke="black" points="575.46,-187 572.46,-191 551.46,-191 548.46,-187 440.54,-187 440.54,-151 575.46,-151 575.46,-187"/>
<text text-anchor="middle" x="508" y="-164.8" font-family="Times,serif" font-size="14.00">GlobalTraderModule</text>
</g>
<!-- AccountTypeModule&#45;&gt;GlobalTraderModule -->
<g id="edge1" class="edge">
<title>AccountTypeModule&#45;&gt;GlobalTraderModule</title>
<path fill="none" stroke="black" d="M830,-122.28C830,-143.32 830,-175 830,-175 830,-175 585.5,-175 585.5,-175"/>
<polygon fill="black" stroke="black" points="585.5,-171.5 575.5,-175 585.5,-178.5 585.5,-171.5"/>
</g>
<!-- AuthModule -->
<g id="node2" class="node">
<title>AuthModule</title>
<polygon fill="#8dd3c7" stroke="black" points="743.55,-122 740.55,-126 719.55,-126 716.55,-122 656.45,-122 656.45,-86 743.55,-86 743.55,-122"/>
<text text-anchor="middle" x="700" y="-99.8" font-family="Times,serif" font-size="14.00">AuthModule</text>
</g>
<!-- AuthModule&#45;&gt;GlobalTraderModule -->
<g id="edge2" class="edge">
<title>AuthModule&#45;&gt;GlobalTraderModule</title>
<path fill="none" stroke="black" d="M700,-122.02C700,-139.37 700,-163 700,-163 700,-163 585.69,-163 585.69,-163"/>
<polygon fill="black" stroke="black" points="585.69,-159.5 575.69,-163 585.69,-166.5 585.69,-159.5"/>
</g>
<!-- DatabaseModule -->
<g id="node3" class="node">
<title>DatabaseModule</title>
<polygon fill="#8dd3c7" stroke="black" points="638.35,-122 635.35,-126 614.35,-126 611.35,-122 527.65,-122 527.65,-86 638.35,-86 638.35,-122"/>
<text text-anchor="middle" x="583" y="-99.8" font-family="Times,serif" font-size="14.00">DatabaseModule</text>
</g>
<!-- DatabaseModule&#45;&gt;GlobalTraderModule -->
<g id="edge3" class="edge">
<title>DatabaseModule&#45;&gt;GlobalTraderModule</title>
<path fill="none" stroke="black" d="M551.53,-122.11C551.53,-122.11 551.53,-140.99 551.53,-140.99"/>
<polygon fill="black" stroke="black" points="548.03,-140.99 551.53,-150.99 555.03,-140.99 548.03,-140.99"/>
</g>
<!-- LanguageTraderModule -->
<g id="node4" class="node">
<title>LanguageTraderModule</title>
<polygon fill="#8dd3c7" stroke="black" points="510.05,-122 507.05,-126 486.05,-126 483.05,-122 357.95,-122 357.95,-86 510.05,-86 510.05,-122"/>
<text text-anchor="middle" x="434" y="-99.8" font-family="Times,serif" font-size="14.00">LanguageTraderModule</text>
</g>
<!-- LanguageTraderModule&#45;&gt;GlobalTraderModule -->
<g id="edge4" class="edge">
<title>LanguageTraderModule&#45;&gt;GlobalTraderModule</title>
<path fill="none" stroke="black" d="M475.27,-122.11C475.27,-122.11 475.27,-140.99 475.27,-140.99"/>
<polygon fill="black" stroke="black" points="471.77,-140.99 475.27,-150.99 478.77,-140.99 471.77,-140.99"/>
</g>
<!-- OpenAccountModule -->
<g id="node5" class="node">
<title>OpenAccountModule</title>
<polygon fill="#8dd3c7" stroke="black" points="339.8,-122 336.8,-126 315.8,-126 312.8,-122 202.2,-122 202.2,-86 339.8,-86 339.8,-122"/>
<text text-anchor="middle" x="271" y="-99.8" font-family="Times,serif" font-size="14.00">OpenAccountModule</text>
</g>
<!-- OpenAccountModule&#45;&gt;GlobalTraderModule -->
<g id="edge5" class="edge">
<title>OpenAccountModule&#45;&gt;GlobalTraderModule</title>
<path fill="none" stroke="black" d="M271,-122.02C271,-139.37 271,-163 271,-163 271,-163 430.4,-163 430.4,-163"/>
<polygon fill="black" stroke="black" points="430.4,-166.5 440.4,-163 430.4,-159.5 430.4,-166.5"/>
</g>
<!-- TranslationTraderModule -->
<g id="node6" class="node">
<title>TranslationTraderModule</title>
<polygon fill="#8dd3c7" stroke="black" points="184.11,-122 181.11,-126 160.11,-126 157.11,-122 23.89,-122 23.89,-86 184.11,-86 184.11,-122"/>
<text text-anchor="middle" x="104" y="-99.8" font-family="Times,serif" font-size="14.00">TranslationTraderModule</text>
</g>
<!-- TranslationTraderModule&#45;&gt;GlobalTraderModule -->
<g id="edge6" class="edge">
<title>TranslationTraderModule&#45;&gt;GlobalTraderModule</title>
<path fill="none" stroke="black" d="M104,-122.28C104,-143.32 104,-175 104,-175 104,-175 430.38,-175 430.38,-175"/>
<polygon fill="black" stroke="black" points="430.38,-178.5 440.38,-175 430.38,-171.5 430.38,-178.5"/>
</g>
</g>
</svg>
