<?xml version="1.0" encoding="UTF-8" standalone="no"?>
<!DOCTYPE svg PUBLIC "-//W3C//DTD SVG 1.1//EN"
 "http://www.w3.org/Graphics/SVG/1.1/DTD/svg11.dtd">
<!-- Generated by graphviz version 2.47.0 (20210316.0004)
 -->
<!-- Title: dependencies Pages: 1 -->
<svg width="504pt" height="211pt"
 viewBox="0.00 0.00 504.00 211.00" xmlns="http://www.w3.org/2000/svg" xmlns:xlink="http://www.w3.org/1999/xlink">
<g id="graph0" class="graph" transform="scale(1 1) rotate(0) translate(4 207)">
<title>dependencies</title>
<polygon fill="white" stroke="transparent" points="-4,4 -4,-207 500,-207 500,4 -4,4"/>
<text text-anchor="start" x="227.01" y="-42.4" font-family="sans-serif" font-weight="bold" font-size="14.00">Legend</text>
<polygon fill="#ffffb3" stroke="transparent" points="14,-10 14,-30 34,-30 34,-10 14,-10"/>
<text text-anchor="start" x="37.63" y="-15.4" font-family="sans-serif" font-size="14.00"> &#160;Declarations</text>
<polygon fill="#8dd3c7" stroke="transparent" points="127,-10 127,-30 147,-30 147,-10 127,-10"/>
<text text-anchor="start" x="150.73" y="-15.4" font-family="sans-serif" font-size="14.00"> &#160;Module</text>
<polygon fill="#80b1d3" stroke="transparent" points="213,-10 213,-30 233,-30 233,-10 213,-10"/>
<text text-anchor="start" x="236.78" y="-15.4" font-family="sans-serif" font-size="14.00"> &#160;Bootstrap</text>
<polygon fill="#fdb462" stroke="transparent" points="310,-10 310,-30 330,-30 330,-10 310,-10"/>
<text text-anchor="start" x="333.67" y="-15.4" font-family="sans-serif" font-size="14.00"> &#160;Providers</text>
<polygon fill="#fb8072" stroke="transparent" points="406,-10 406,-30 426,-30 426,-10 406,-10"/>
<text text-anchor="start" x="429.73" y="-15.4" font-family="sans-serif" font-size="14.00"> &#160;Exports</text>
<g id="clust1" class="cluster">
<title>cluster_OpenAccountModule</title>
<polygon fill="none" stroke="black" stroke-dasharray="1,5" points="36,-70 36,-195 460,-195 460,-70 36,-70"/>
</g>
<g id="clust6" class="cluster">
<title>cluster_OpenAccountModule_providers</title>
<polygon fill="none" stroke="black" points="44,-78 44,-130 452,-130 452,-78 44,-78"/>
</g>
<!-- IsExist -->
<g id="node1" class="node">
<title>IsExist</title>
<ellipse fill="#fdb462" stroke="black" cx="406" cy="-104" rx="37.72" ry="18"/>
<text text-anchor="middle" x="406" y="-99.8" font-family="Times,serif" font-size="14.00">IsExist</text>
</g>
<!-- OpenAccountModule -->
<g id="node4" class="node">
<title>OpenAccountModule</title>
<polygon fill="#8dd3c7" stroke="black" points="372.8,-187 369.8,-191 348.8,-191 345.8,-187 235.2,-187 235.2,-151 372.8,-151 372.8,-187"/>
<text text-anchor="middle" x="304" y="-164.8" font-family="Times,serif" font-size="14.00">OpenAccountModule</text>
</g>
<!-- IsExist&#45;&gt;OpenAccountModule -->
<g id="edge1" class="edge">
<title>IsExist&#45;&gt;OpenAccountModule</title>
<path fill="none" stroke="black" d="M367.86,-104C362.78,-104 359.29,-104 359.29,-104 359.29,-104 359.29,-140.89 359.29,-140.89"/>
<polygon fill="black" stroke="black" points="355.79,-140.89 359.29,-150.89 362.79,-140.89 355.79,-140.89"/>
</g>
<!-- IsUnique -->
<g id="node2" class="node">
<title>IsUnique</title>
<ellipse fill="#fdb462" stroke="black" cx="304" cy="-104" rx="46.37" ry="18"/>
<text text-anchor="middle" x="304" y="-99.8" font-family="Times,serif" font-size="14.00">IsUnique</text>
</g>
<!-- IsUnique&#45;&gt;OpenAccountModule -->
<g id="edge2" class="edge">
<title>IsUnique&#45;&gt;OpenAccountModule</title>
<path fill="none" stroke="black" d="M304,-122.11C304,-122.11 304,-140.99 304,-140.99"/>
<polygon fill="black" stroke="black" points="300.5,-140.99 304,-150.99 307.5,-140.99 300.5,-140.99"/>
</g>
<!-- OpenAccountService -->
<g id="node3" class="node">
<title>OpenAccountService</title>
<ellipse fill="#fdb462" stroke="black" cx="146" cy="-104" rx="93.74" ry="18"/>
<text text-anchor="middle" x="146" y="-99.8" font-family="Times,serif" font-size="14.00">OpenAccountService</text>
</g>
<!-- OpenAccountService&#45;&gt;OpenAccountModule -->
<g id="edge3" class="edge">
<title>OpenAccountService&#45;&gt;OpenAccountModule</title>
<path fill="none" stroke="black" d="M239.85,-104C245.28,-104 248.59,-104 248.59,-104 248.59,-104 248.59,-140.89 248.59,-140.89"/>
<polygon fill="black" stroke="black" points="245.09,-140.89 248.59,-150.89 252.09,-140.89 245.09,-140.89"/>
</g>
</g>
</svg>
