<?xml version="1.0" encoding="UTF-8" standalone="no"?>
<!DOCTYPE svg PUBLIC "-//W3C//DTD SVG 1.1//EN"
 "http://www.w3.org/Graphics/SVG/1.1/DTD/svg11.dtd">
<!-- Generated by graphviz version 2.47.0 (20210316.0004)
 -->
<!-- Title: dependencies Pages: 1 -->
<svg width="2655pt" height="385pt"
 viewBox="0.00 0.00 2655.00 385.40" xmlns="http://www.w3.org/2000/svg" xmlns:xlink="http://www.w3.org/1999/xlink">
<g id="graph0" class="graph" transform="scale(1 1) rotate(0) translate(4 381.4)">
<title>dependencies</title>
<polygon fill="white" stroke="transparent" points="-4,4 -4,-381.4 2651,-381.4 2651,4 -4,4"/>
<text text-anchor="start" x="1302.51" y="-42.4" font-family="sans-serif" font-weight="bold" font-size="14.00">Legend</text>
<polygon fill="#ffffb3" stroke="transparent" points="1089.5,-10 1089.5,-30 1109.5,-30 1109.5,-10 1089.5,-10"/>
<text text-anchor="start" x="1113.13" y="-15.4" font-family="sans-serif" font-size="14.00"> &#160;Declarations</text>
<polygon fill="#8dd3c7" stroke="transparent" points="1202.5,-10 1202.5,-30 1222.5,-30 1222.5,-10 1202.5,-10"/>
<text text-anchor="start" x="1226.23" y="-15.4" font-family="sans-serif" font-size="14.00"> &#160;Module</text>
<polygon fill="#80b1d3" stroke="transparent" points="1288.5,-10 1288.5,-30 1308.5,-30 1308.5,-10 1288.5,-10"/>
<text text-anchor="start" x="1312.28" y="-15.4" font-family="sans-serif" font-size="14.00"> &#160;Bootstrap</text>
<polygon fill="#fdb462" stroke="transparent" points="1385.5,-10 1385.5,-30 1405.5,-30 1405.5,-10 1385.5,-10"/>
<text text-anchor="start" x="1409.17" y="-15.4" font-family="sans-serif" font-size="14.00"> &#160;Providers</text>
<polygon fill="#fb8072" stroke="transparent" points="1481.5,-10 1481.5,-30 1501.5,-30 1501.5,-10 1481.5,-10"/>
<text text-anchor="start" x="1505.23" y="-15.4" font-family="sans-serif" font-size="14.00"> &#160;Exports</text>
<g id="clust1" class="cluster">
<title>cluster_AccountTypeModule</title>
<polygon fill="none" stroke="black" stroke-dasharray="1,5" points="8,-146 8,-293.2 226,-293.2 226,-146 8,-146"/>
</g>
<g id="clust6" class="cluster">
<title>cluster_AccountTypeModule_providers</title>
<polygon fill="none" stroke="black" points="16,-154 16,-206 218,-206 218,-154 16,-154"/>
</g>
<g id="clust7" class="cluster">
<title>cluster_AuthModule</title>
<polygon fill="none" stroke="black" stroke-dasharray="1,5" points="2489,-146 2489,-293.2 2639,-293.2 2639,-146 2489,-146"/>
</g>
<g id="clust12" class="cluster">
<title>cluster_AuthModule_providers</title>
<polygon fill="none" stroke="black" points="2497,-154 2497,-206 2631,-206 2631,-154 2497,-154"/>
</g>
<g id="clust19" class="cluster">
<title>cluster_GlobalAdminModule</title>
<polygon fill="none" stroke="black" stroke-dasharray="1,5" points="234,-146 234,-369.4 777,-369.4 777,-146 234,-146"/>
</g>
<g id="clust21" class="cluster">
<title>cluster_GlobalAdminModule_imports</title>
<polygon fill="none" stroke="black" points="242,-154 242,-293.2 769,-293.2 769,-154 242,-154"/>
</g>
<g id="clust25" class="cluster">
<title>cluster_GlobalTraderModule</title>
<polygon fill="none" stroke="black" stroke-dasharray="1,5" points="2133,-146 2133,-369.4 2481,-369.4 2481,-146 2133,-146"/>
</g>
<g id="clust27" class="cluster">
<title>cluster_GlobalTraderModule_imports</title>
<polygon fill="none" stroke="black" points="2141,-154 2141,-293.2 2473,-293.2 2473,-154 2141,-154"/>
</g>
<g id="clust31" class="cluster">
<title>cluster_LanguageAdminModule</title>
<polygon fill="none" stroke="black" stroke-dasharray="1,5" points="1361,-146 1361,-214 1549,-214 1549,-146 1361,-146"/>
</g>
<g id="clust36" class="cluster">
<title>cluster_LanguageAdminModule_providers</title>
<polygon fill="none" stroke="black" points="1369,-154 1369,-206 1541,-206 1541,-154 1369,-154"/>
</g>
<g id="clust43" class="cluster">
<title>cluster_OpenAccountModule</title>
<polygon fill="none" stroke="black" stroke-dasharray="1,5" points="2128,-70 2128,-138 2552,-138 2552,-70 2128,-70"/>
</g>
<g id="clust48" class="cluster">
<title>cluster_OpenAccountModule_providers</title>
<polygon fill="none" stroke="black" points="2136,-78 2136,-130 2544,-130 2544,-78 2136,-78"/>
</g>
<g id="clust49" class="cluster">
<title>cluster_TaskModule</title>
<polygon fill="none" stroke="black" stroke-dasharray="1,5" points="360,-70 360,-138 510,-138 510,-70 360,-70"/>
</g>
<g id="clust54" class="cluster">
<title>cluster_TaskModule_providers</title>
<polygon fill="none" stroke="black" points="368,-78 368,-130 502,-130 502,-78 368,-78"/>
</g>
<g id="clust55" class="cluster">
<title>cluster_TraderModule</title>
<polygon fill="none" stroke="black" stroke-dasharray="1,5" points="188,-70 188,-138 352,-138 352,-70 188,-70"/>
</g>
<g id="clust60" class="cluster">
<title>cluster_TraderModule_providers</title>
<polygon fill="none" stroke="black" points="196,-78 196,-130 344,-130 344,-78 196,-78"/>
</g>
<g id="clust61" class="cluster">
<title>cluster_TranslationAdminModule</title>
<polygon fill="none" stroke="black" stroke-dasharray="1,5" points="785,-222 785,-312.4 2125,-312.4 2125,-222 785,-222"/>
</g>
<g id="clust64" class="cluster">
<title>cluster_TranslationAdminModule_exports</title>
<polygon fill="none" stroke="black" points="985,-230 985,-304.4 2117,-304.4 2117,-230 985,-230"/>
</g>
<g id="clust66" class="cluster">
<title>cluster_TranslationAdminModule_providers</title>
<polygon fill="none" stroke="black" points="793,-241.2 793,-293.2 977,-293.2 977,-241.2 793,-241.2"/>
</g>
<!-- AccountTypeService -->
<g id="node1" class="node">
<title>AccountTypeService</title>
<ellipse fill="#fdb462" stroke="black" cx="117" cy="-180" rx="92.6" ry="18"/>
<text text-anchor="middle" x="117" y="-175.8" font-family="Times,serif" font-size="14.00">AccountTypeService</text>
</g>
<!-- AccountTypeModule -->
<g id="node2" class="node">
<title>AccountTypeModule</title>
<polygon fill="#8dd3c7" stroke="black" points="200.74,-285.2 197.74,-289.2 176.74,-289.2 173.74,-285.2 65.26,-285.2 65.26,-249.2 200.74,-249.2 200.74,-285.2"/>
<text text-anchor="middle" x="133" y="-263" font-family="Times,serif" font-size="14.00">AccountTypeModule</text>
</g>
<!-- AccountTypeService&#45;&gt;AccountTypeModule -->
<g id="edge1" class="edge">
<title>AccountTypeService&#45;&gt;AccountTypeModule</title>
<path fill="none" stroke="black" d="M155.62,-196.4C155.62,-196.4 155.62,-239.07 155.62,-239.07"/>
<polygon fill="black" stroke="black" points="152.12,-239.07 155.62,-249.07 159.12,-239.07 152.12,-239.07"/>
</g>
<!-- AccountTypeService&#45;&gt;AccountTypeModule -->
<g id="edge2" class="edge">
<title>AccountTypeService&#45;&gt;AccountTypeModule</title>
<path fill="none" stroke="black" d="M110.38,-198.07C110.38,-198.07 110.38,-239.16 110.38,-239.16"/>
<polygon fill="black" stroke="black" points="106.88,-239.16 110.38,-249.16 113.88,-239.16 106.88,-239.16"/>
</g>
<!-- GlobalAdminModule -->
<g id="node10" class="node">
<title>GlobalAdminModule</title>
<polygon fill="#8dd3c7" stroke="black" points="523.04,-361.4 520.04,-365.4 499.04,-365.4 496.04,-361.4 386.96,-361.4 386.96,-325.4 523.04,-325.4 523.04,-361.4"/>
<text text-anchor="middle" x="455" y="-339.2" font-family="Times,serif" font-size="14.00">GlobalAdminModule</text>
</g>
<!-- AccountTypeModule&#45;&gt;GlobalAdminModule -->
<g id="edge4" class="edge">
<title>AccountTypeModule&#45;&gt;GlobalAdminModule</title>
<path fill="none" stroke="black" d="M201.05,-267.4C282.57,-267.4 408.28,-267.4 408.28,-267.4 408.28,-267.4 408.28,-315.39 408.28,-315.39"/>
<polygon fill="black" stroke="black" points="404.78,-315.39 408.28,-325.39 411.78,-315.39 404.78,-315.39"/>
</g>
<!-- GlobalTraderModule -->
<g id="node14" class="node">
<title>GlobalTraderModule</title>
<polygon fill="#8dd3c7" stroke="black" points="2339.46,-361.4 2336.46,-365.4 2315.46,-365.4 2312.46,-361.4 2204.54,-361.4 2204.54,-325.4 2339.46,-325.4 2339.46,-361.4"/>
<text text-anchor="middle" x="2272" y="-339.2" font-family="Times,serif" font-size="14.00">GlobalTraderModule</text>
</g>
<!-- AccountTypeModule&#45;&gt;GlobalTraderModule -->
<g id="edge10" class="edge">
<title>AccountTypeModule&#45;&gt;GlobalTraderModule</title>
<path fill="none" stroke="black" d="M201.05,-258.4C317.44,-258.4 542.32,-258.4 542.32,-258.4 542.32,-258.4 542.32,-352.4 542.32,-352.4 542.32,-352.4 2194.46,-352.4 2194.46,-352.4"/>
<polygon fill="black" stroke="black" points="2194.46,-355.9 2204.46,-352.4 2194.46,-348.9 2194.46,-355.9"/>
</g>
<!-- AuthService -->
<g id="node3" class="node">
<title>AuthService</title>
<ellipse fill="#fdb462" stroke="black" cx="2564" cy="-180" rx="59.11" ry="18"/>
<text text-anchor="middle" x="2564" y="-175.8" font-family="Times,serif" font-size="14.00">AuthService</text>
</g>
<!-- AuthModule -->
<g id="node4" class="node">
<title>AuthModule</title>
<polygon fill="#8dd3c7" stroke="black" points="2595.55,-285.2 2592.55,-289.2 2571.55,-289.2 2568.55,-285.2 2508.45,-285.2 2508.45,-249.2 2595.55,-249.2 2595.55,-285.2"/>
<text text-anchor="middle" x="2552" y="-263" font-family="Times,serif" font-size="14.00">AuthModule</text>
</g>
<!-- AuthService&#45;&gt;AuthModule -->
<g id="edge3" class="edge">
<title>AuthService&#45;&gt;AuthModule</title>
<path fill="none" stroke="black" d="M2552,-197.65C2552,-197.65 2552,-238.98 2552,-238.98"/>
<polygon fill="black" stroke="black" points="2548.5,-238.98 2552,-248.98 2555.5,-238.98 2548.5,-238.98"/>
</g>
<!-- AuthModule&#45;&gt;GlobalTraderModule -->
<g id="edge11" class="edge">
<title>AuthModule&#45;&gt;GlobalTraderModule</title>
<path fill="none" stroke="black" d="M2508.44,-267.4C2445.2,-267.4 2335.44,-267.4 2335.44,-267.4 2335.44,-267.4 2335.44,-315.39 2335.44,-315.39"/>
<polygon fill="black" stroke="black" points="2331.94,-315.39 2335.44,-325.39 2338.94,-315.39 2331.94,-315.39"/>
</g>
<!-- DatabaseModule -->
<g id="node5" class="node">
<title>DatabaseModule</title>
<polygon fill="#8dd3c7" stroke="black" points="580.35,-198 577.35,-202 556.35,-202 553.35,-198 469.65,-198 469.65,-162 580.35,-162 580.35,-198"/>
<text text-anchor="middle" x="525" y="-175.8" font-family="Times,serif" font-size="14.00">DatabaseModule</text>
</g>
<!-- DatabaseModule&#45;&gt;GlobalAdminModule -->
<g id="edge5" class="edge">
<title>DatabaseModule&#45;&gt;GlobalAdminModule</title>
<path fill="none" stroke="black" d="M487.47,-198.11C487.47,-198.11 487.47,-315.21 487.47,-315.21"/>
<polygon fill="black" stroke="black" points="483.97,-315.21 487.47,-325.21 490.97,-315.21 483.97,-315.21"/>
</g>
<!-- DatabaseModule&#45;&gt;GlobalTraderModule -->
<g id="edge12" class="edge">
<title>DatabaseModule&#45;&gt;GlobalTraderModule</title>
<path fill="none" stroke="black" d="M561.37,-198.11C561.37,-240.65 561.37,-343.4 561.37,-343.4 561.37,-343.4 2194.41,-343.4 2194.41,-343.4"/>
<polygon fill="black" stroke="black" points="2194.41,-346.9 2204.41,-343.4 2194.41,-339.9 2194.41,-346.9"/>
</g>
<!-- LanguageAdminModule -->
<g id="node6" class="node">
<title>LanguageAdminModule</title>
<polygon fill="#8dd3c7" stroke="black" points="738.63,-285.2 735.63,-289.2 714.63,-289.2 711.63,-285.2 585.37,-285.2 585.37,-249.2 738.63,-249.2 738.63,-285.2"/>
<text text-anchor="middle" x="662" y="-263" font-family="Times,serif" font-size="14.00">LanguageAdminModule</text>
</g>
<!-- LanguageAdminModule&#45;&gt;GlobalAdminModule -->
<g id="edge6" class="edge">
<title>LanguageAdminModule&#45;&gt;GlobalAdminModule</title>
<path fill="none" stroke="black" d="M585.06,-276.4C545.45,-276.4 505.37,-276.4 505.37,-276.4 505.37,-276.4 505.37,-315.09 505.37,-315.09"/>
<polygon fill="black" stroke="black" points="501.87,-315.09 505.37,-325.09 508.87,-315.09 501.87,-315.09"/>
</g>
<!-- TaskModule -->
<g id="node7" class="node">
<title>TaskModule</title>
<polygon fill="#8dd3c7" stroke="black" points="451.26,-198 448.26,-202 427.26,-202 424.26,-198 364.74,-198 364.74,-162 451.26,-162 451.26,-198"/>
<text text-anchor="middle" x="408" y="-175.8" font-family="Times,serif" font-size="14.00">TaskModule</text>
</g>
<!-- TaskModule&#45;&gt;GlobalAdminModule -->
<g id="edge7" class="edge">
<title>TaskModule&#45;&gt;GlobalAdminModule</title>
<path fill="none" stroke="black" d="M429.83,-198.11C429.83,-198.11 429.83,-315.21 429.83,-315.21"/>
<polygon fill="black" stroke="black" points="426.33,-315.21 429.83,-325.21 433.33,-315.21 426.33,-315.21"/>
</g>
<!-- TraderModule -->
<g id="node8" class="node">
<title>TraderModule</title>
<polygon fill="#8dd3c7" stroke="black" points="346.35,-198 343.35,-202 322.35,-202 319.35,-198 249.65,-198 249.65,-162 346.35,-162 346.35,-198"/>
<text text-anchor="middle" x="298" y="-175.8" font-family="Times,serif" font-size="14.00">TraderModule</text>
</g>
<!-- TraderModule&#45;&gt;GlobalAdminModule -->
<g id="edge8" class="edge">
<title>TraderModule&#45;&gt;GlobalAdminModule</title>
<path fill="none" stroke="black" d="M298,-198.11C298,-240.65 298,-343.4 298,-343.4 298,-343.4 376.59,-343.4 376.59,-343.4"/>
<polygon fill="black" stroke="black" points="376.59,-346.9 386.59,-343.4 376.59,-339.9 376.59,-346.9"/>
</g>
<!-- TranslationAdminModule -->
<g id="node9" class="node">
<title>TranslationAdminModule</title>
<polygon fill="#8dd3c7" stroke="black" points="761.2,-198 758.2,-202 737.2,-202 734.2,-198 598.8,-198 598.8,-162 761.2,-162 761.2,-198"/>
<text text-anchor="middle" x="680" y="-175.8" font-family="Times,serif" font-size="14.00">TranslationAdminModule</text>
</g>
<!-- TranslationAdminModule&#45;&gt;LanguageAdminModule -->
<g id="edge16" class="edge">
<title>TranslationAdminModule&#45;&gt;LanguageAdminModule</title>
<path fill="none" stroke="black" d="M668.86,-198.07C668.86,-198.07 668.86,-239.16 668.86,-239.16"/>
<polygon fill="black" stroke="black" points="665.36,-239.16 668.86,-249.16 672.36,-239.16 665.36,-239.16"/>
</g>
<!-- TranslationAdminModule&#45;&gt;GlobalAdminModule -->
<g id="edge9" class="edge">
<title>TranslationAdminModule&#45;&gt;GlobalAdminModule</title>
<path fill="none" stroke="black" d="M749.96,-198.01C749.96,-238.74 749.96,-334.4 749.96,-334.4 749.96,-334.4 533.41,-334.4 533.41,-334.4"/>
<polygon fill="black" stroke="black" points="533.41,-330.9 523.41,-334.4 533.41,-337.9 533.41,-330.9"/>
</g>
<!-- TranslationService  -->
<g id="node21" class="node">
<title>TranslationService </title>
<polygon fill="#fb8072" stroke="black" points="2108.74,-285.2 1983.26,-285.2 1983.26,-249.2 2108.74,-249.2 2108.74,-285.2"/>
<text text-anchor="middle" x="2046" y="-263" font-family="Times,serif" font-size="14.00">TranslationService </text>
</g>
<!-- TranslationAdminModule&#45;&gt;TranslationService  -->
<g id="edge25" class="edge">
<title>TranslationAdminModule&#45;&gt;TranslationService </title>
<path fill="none" stroke="black" stroke-dasharray="5,2" d="M746.24,-198.05C746.24,-202.69 746.24,-206.4 746.24,-206.4 746.24,-206.4 2025.13,-206.4 2025.13,-206.4 2025.13,-206.4 2025.13,-238.96 2025.13,-238.96"/>
<polygon fill="black" stroke="black" points="2021.63,-238.96 2025.13,-248.96 2028.63,-238.96 2021.63,-238.96"/>
</g>
<!-- {
 &#160;&#160;&#160;provide: , useValue: ADMIN_TRANSLATIONS,
}  -->
<g id="node22" class="node">
<title>{
 &#160;&#160;&#160;provide: , useValue: ADMIN_TRANSLATIONS,
} </title>
<polygon fill="#fb8072" stroke="black" points="1965.31,-296.6 1654.69,-296.6 1654.69,-237.8 1965.31,-237.8 1965.31,-296.6"/>
<text text-anchor="middle" x="1810" y="-279.8" font-family="Times,serif" font-size="14.00">{</text>
<text text-anchor="middle" x="1810" y="-263" font-family="Times,serif" font-size="14.00"> &#160;&#160;&#160;provide: , useValue: ADMIN_TRANSLATIONS,</text>
<text text-anchor="middle" x="1810" y="-246.2" font-family="Times,serif" font-size="14.00">} </text>
</g>
<!-- TranslationAdminModule&#45;&gt;{
 &#160;&#160;&#160;provide: , useValue: ADMIN_TRANSLATIONS,
}  -->
<g id="edge26" class="edge">
<title>TranslationAdminModule&#45;&gt;{
 &#160;&#160;&#160;provide: , useValue: ADMIN_TRANSLATIONS,
} </title>
<path fill="none" stroke="black" stroke-dasharray="5,2" d="M742.53,-198.23C742.53,-209.72 742.53,-222.4 742.53,-222.4 742.53,-222.4 1810,-222.4 1810,-222.4 1810,-222.4 1810,-227.82 1810,-227.82"/>
<polygon fill="black" stroke="black" points="1806.5,-227.82 1810,-237.82 1813.5,-227.82 1806.5,-227.82"/>
</g>
<!-- {
 &#160;&#160;&#160;provide: , useValue: EMAIL_TRANSLATIONS,
}  -->
<g id="node23" class="node">
<title>{
 &#160;&#160;&#160;provide: , useValue: EMAIL_TRANSLATIONS,
} </title>
<polygon fill="#fb8072" stroke="black" points="1636.7,-296.6 1329.3,-296.6 1329.3,-237.8 1636.7,-237.8 1636.7,-296.6"/>
<text text-anchor="middle" x="1483" y="-279.8" font-family="Times,serif" font-size="14.00">{</text>
<text text-anchor="middle" x="1483" y="-263" font-family="Times,serif" font-size="14.00"> &#160;&#160;&#160;provide: , useValue: EMAIL_TRANSLATIONS,</text>
<text text-anchor="middle" x="1483" y="-246.2" font-family="Times,serif" font-size="14.00">} </text>
</g>
<!-- TranslationAdminModule&#45;&gt;{
 &#160;&#160;&#160;provide: , useValue: EMAIL_TRANSLATIONS,
}  -->
<g id="edge27" class="edge">
<title>TranslationAdminModule&#45;&gt;{
 &#160;&#160;&#160;provide: , useValue: EMAIL_TRANSLATIONS,
} </title>
<path fill="none" stroke="black" stroke-dasharray="5,2" d="M761.2,-174.4C940.24,-174.4 1353.17,-174.4 1353.17,-174.4 1353.17,-174.4 1353.17,-227.84 1353.17,-227.84"/>
<polygon fill="black" stroke="black" points="1349.67,-227.84 1353.17,-237.84 1356.67,-227.84 1349.67,-227.84"/>
</g>
<!-- {
 &#160;&#160;&#160;provide: , useValue: TRADER_TRANSLATIONS,
}  -->
<g id="node24" class="node">
<title>{
 &#160;&#160;&#160;provide: , useValue: TRADER_TRANSLATIONS,
} </title>
<polygon fill="#fb8072" stroke="black" points="1311.38,-296.6 992.62,-296.6 992.62,-237.8 1311.38,-237.8 1311.38,-296.6"/>
<text text-anchor="middle" x="1152" y="-279.8" font-family="Times,serif" font-size="14.00">{</text>
<text text-anchor="middle" x="1152" y="-263" font-family="Times,serif" font-size="14.00"> &#160;&#160;&#160;provide: , useValue: TRADER_TRANSLATIONS,</text>
<text text-anchor="middle" x="1152" y="-246.2" font-family="Times,serif" font-size="14.00">} </text>
</g>
<!-- TranslationAdminModule&#45;&gt;{
 &#160;&#160;&#160;provide: , useValue: TRADER_TRANSLATIONS,
}  -->
<g id="edge28" class="edge">
<title>TranslationAdminModule&#45;&gt;{
 &#160;&#160;&#160;provide: , useValue: TRADER_TRANSLATIONS,
} </title>
<path fill="none" stroke="black" stroke-dasharray="5,2" d="M757.38,-198.28C757.38,-217.32 757.38,-244.4 757.38,-244.4 757.38,-244.4 982.35,-244.4 982.35,-244.4"/>
<polygon fill="black" stroke="black" points="982.35,-247.9 992.35,-244.4 982.35,-240.9 982.35,-247.9"/>
</g>
<!-- LanguageTraderModule -->
<g id="node11" class="node">
<title>LanguageTraderModule</title>
<polygon fill="#8dd3c7" stroke="black" points="2301.05,-285.2 2298.05,-289.2 2277.05,-289.2 2274.05,-285.2 2148.95,-285.2 2148.95,-249.2 2301.05,-249.2 2301.05,-285.2"/>
<text text-anchor="middle" x="2225" y="-263" font-family="Times,serif" font-size="14.00">LanguageTraderModule</text>
</g>
<!-- LanguageTraderModule&#45;&gt;GlobalTraderModule -->
<g id="edge13" class="edge">
<title>LanguageTraderModule&#45;&gt;GlobalTraderModule</title>
<path fill="none" stroke="black" d="M2252.77,-285.26C2252.77,-285.26 2252.77,-315.21 2252.77,-315.21"/>
<polygon fill="black" stroke="black" points="2249.27,-315.21 2252.77,-325.21 2256.27,-315.21 2249.27,-315.21"/>
</g>
<!-- OpenAccountModule -->
<g id="node12" class="node">
<title>OpenAccountModule</title>
<polygon fill="#8dd3c7" stroke="black" points="2464.8,-198 2461.8,-202 2440.8,-202 2437.8,-198 2327.2,-198 2327.2,-162 2464.8,-162 2464.8,-198"/>
<text text-anchor="middle" x="2396" y="-175.8" font-family="Times,serif" font-size="14.00">OpenAccountModule</text>
</g>
<!-- OpenAccountModule&#45;&gt;GlobalTraderModule -->
<g id="edge14" class="edge">
<title>OpenAccountModule&#45;&gt;GlobalTraderModule</title>
<path fill="none" stroke="black" d="M2331.39,-198.11C2331.39,-198.11 2331.39,-315.21 2331.39,-315.21"/>
<polygon fill="black" stroke="black" points="2327.89,-315.21 2331.39,-325.21 2334.89,-315.21 2327.89,-315.21"/>
</g>
<!-- TranslationTraderModule -->
<g id="node13" class="node">
<title>TranslationTraderModule</title>
<polygon fill="#8dd3c7" stroke="black" points="2309.11,-198 2306.11,-202 2285.11,-202 2282.11,-198 2148.89,-198 2148.89,-162 2309.11,-162 2309.11,-198"/>
<text text-anchor="middle" x="2229" y="-175.8" font-family="Times,serif" font-size="14.00">TranslationTraderModule</text>
</g>
<!-- TranslationTraderModule&#45;&gt;LanguageTraderModule -->
<g id="edge18" class="edge">
<title>TranslationTraderModule&#45;&gt;LanguageTraderModule</title>
<path fill="none" stroke="black" d="M2270.61,-198.07C2270.61,-198.07 2270.61,-239.16 2270.61,-239.16"/>
<polygon fill="black" stroke="black" points="2267.11,-239.16 2270.61,-249.16 2274.11,-239.16 2267.11,-239.16"/>
</g>
<!-- TranslationTraderModule&#45;&gt;GlobalTraderModule -->
<g id="edge15" class="edge">
<title>TranslationTraderModule&#45;&gt;GlobalTraderModule</title>
<path fill="none" stroke="black" d="M2305.17,-198.11C2305.17,-198.11 2305.17,-315.21 2305.17,-315.21"/>
<polygon fill="black" stroke="black" points="2301.67,-315.21 2305.17,-325.21 2308.67,-315.21 2301.67,-315.21"/>
</g>
<!-- TranslationTraderModule&#45;&gt;TranslationService  -->
<g id="edge30" class="edge">
<title>TranslationTraderModule&#45;&gt;TranslationService </title>
<path fill="none" stroke="black" stroke-dasharray="5,2" d="M2148.89,-189.4C2108.04,-189.4 2066.87,-189.4 2066.87,-189.4 2066.87,-189.4 2066.87,-239.16 2066.87,-239.16"/>
<polygon fill="black" stroke="black" points="2063.37,-239.16 2066.87,-249.16 2070.37,-239.16 2063.37,-239.16"/>
</g>
<!-- TranslationTraderModule&#45;&gt;{
 &#160;&#160;&#160;provide: , useValue: ADMIN_TRANSLATIONS,
}  -->
<g id="edge31" class="edge">
<title>TranslationTraderModule&#45;&gt;{
 &#160;&#160;&#160;provide: , useValue: ADMIN_TRANSLATIONS,
} </title>
<path fill="none" stroke="black" stroke-dasharray="5,2" d="M2240.2,-198.28C2240.2,-217.32 2240.2,-244.4 2240.2,-244.4 2240.2,-244.4 1975.31,-244.4 1975.31,-244.4"/>
<polygon fill="black" stroke="black" points="1975.31,-240.9 1965.31,-244.4 1975.31,-247.9 1975.31,-240.9"/>
</g>
<!-- TranslationTraderModule&#45;&gt;{
 &#160;&#160;&#160;provide: , useValue: EMAIL_TRANSLATIONS,
}  -->
<g id="edge32" class="edge">
<title>TranslationTraderModule&#45;&gt;{
 &#160;&#160;&#160;provide: , useValue: EMAIL_TRANSLATIONS,
} </title>
<path fill="none" stroke="black" stroke-dasharray="5,2" d="M2148.72,-171.4C1976.04,-171.4 1584.83,-171.4 1584.83,-171.4 1584.83,-171.4 1584.83,-227.94 1584.83,-227.94"/>
<polygon fill="black" stroke="black" points="1581.33,-227.94 1584.83,-237.94 1588.33,-227.94 1581.33,-227.94"/>
</g>
<!-- TranslationTraderModule&#45;&gt;{
 &#160;&#160;&#160;provide: , useValue: TRADER_TRANSLATIONS,
}  -->
<g id="edge33" class="edge">
<title>TranslationTraderModule&#45;&gt;{
 &#160;&#160;&#160;provide: , useValue: TRADER_TRANSLATIONS,
} </title>
<path fill="none" stroke="black" stroke-dasharray="5,2" d="M2209.8,-198.2C2209.8,-212.63 2209.8,-230.4 2209.8,-230.4 2209.8,-230.4 1152,-230.4 1152,-230.4 1152,-230.4 1152,-231.14 1152,-231.14"/>
<polygon fill="black" stroke="black" points="1148.5,-227.85 1152,-237.85 1155.5,-227.85 1148.5,-227.85"/>
</g>
<!-- LanguageService -->
<g id="node15" class="node">
<title>LanguageService</title>
<ellipse fill="#fdb462" stroke="black" cx="1455" cy="-180" rx="78.13" ry="18"/>
<text text-anchor="middle" x="1455" y="-175.8" font-family="Times,serif" font-size="14.00">LanguageService</text>
</g>
<!-- LanguageService&#45;&gt;LanguageAdminModule -->
<g id="edge17" class="edge">
<title>LanguageService&#45;&gt;LanguageAdminModule</title>
<path fill="none" stroke="black" d="M1381.92,-186.4C1207.45,-186.4 781.06,-186.4 781.06,-186.4 781.06,-186.4 781.06,-261.4 781.06,-261.4 781.06,-261.4 748.75,-261.4 748.75,-261.4"/>
<polygon fill="black" stroke="black" points="748.75,-257.9 738.75,-261.4 748.75,-264.9 748.75,-257.9"/>
</g>
<!-- LanguageService&#45;&gt;LanguageTraderModule -->
<g id="edge19" class="edge">
<title>LanguageService&#45;&gt;LanguageTraderModule</title>
<path fill="none" stroke="black" d="M1533.34,-180.4C1710.48,-180.4 2126.5,-180.4 2126.5,-180.4 2126.5,-180.4 2126.5,-267.4 2126.5,-267.4 2126.5,-267.4 2138.85,-267.4 2138.85,-267.4"/>
<polygon fill="black" stroke="black" points="2138.85,-270.9 2148.85,-267.4 2138.85,-263.9 2138.85,-270.9"/>
</g>
<!-- IsExist -->
<g id="node16" class="node">
<title>IsExist</title>
<ellipse fill="#fdb462" stroke="black" cx="2498" cy="-104" rx="37.72" ry="18"/>
<text text-anchor="middle" x="2498" y="-99.8" font-family="Times,serif" font-size="14.00">IsExist</text>
</g>
<!-- IsExist&#45;&gt;OpenAccountModule -->
<g id="edge20" class="edge">
<title>IsExist&#45;&gt;OpenAccountModule</title>
<path fill="none" stroke="black" d="M2459.86,-104.4C2454.78,-104.4 2451.29,-104.4 2451.29,-104.4 2451.29,-104.4 2451.29,-151.7 2451.29,-151.7"/>
<polygon fill="black" stroke="black" points="2447.79,-151.7 2451.29,-161.7 2454.79,-151.7 2447.79,-151.7"/>
</g>
<!-- IsUnique -->
<g id="node17" class="node">
<title>IsUnique</title>
<ellipse fill="#fdb462" stroke="black" cx="2396" cy="-104" rx="46.37" ry="18"/>
<text text-anchor="middle" x="2396" y="-99.8" font-family="Times,serif" font-size="14.00">IsUnique</text>
</g>
<!-- IsUnique&#45;&gt;OpenAccountModule -->
<g id="edge21" class="edge">
<title>IsUnique&#45;&gt;OpenAccountModule</title>
<path fill="none" stroke="black" d="M2396,-122.01C2396,-122.01 2396,-151.85 2396,-151.85"/>
<polygon fill="black" stroke="black" points="2392.5,-151.85 2396,-161.85 2399.5,-151.85 2392.5,-151.85"/>
</g>
<!-- OpenAccountService -->
<g id="node18" class="node">
<title>OpenAccountService</title>
<ellipse fill="#fdb462" stroke="black" cx="2238" cy="-104" rx="93.74" ry="18"/>
<text text-anchor="middle" x="2238" y="-99.8" font-family="Times,serif" font-size="14.00">OpenAccountService</text>
</g>
<!-- OpenAccountService&#45;&gt;OpenAccountModule -->
<g id="edge22" class="edge">
<title>OpenAccountService&#45;&gt;OpenAccountModule</title>
<path fill="none" stroke="black" d="M2331.85,-104.4C2337.28,-104.4 2340.59,-104.4 2340.59,-104.4 2340.59,-104.4 2340.59,-151.7 2340.59,-151.7"/>
<polygon fill="black" stroke="black" points="2337.09,-151.7 2340.59,-161.7 2344.09,-151.7 2337.09,-151.7"/>
</g>
<!-- TaskService -->
<g id="node19" class="node">
<title>TaskService</title>
<ellipse fill="#fdb462" stroke="black" cx="435" cy="-104" rx="58.53" ry="18"/>
<text text-anchor="middle" x="435" y="-99.8" font-family="Times,serif" font-size="14.00">TaskService</text>
</g>
<!-- TaskService&#45;&gt;TaskModule -->
<g id="edge23" class="edge">
<title>TaskService&#45;&gt;TaskModule</title>
<path fill="none" stroke="black" d="M413.81,-120.87C413.81,-120.87 413.81,-151.85 413.81,-151.85"/>
<polygon fill="black" stroke="black" points="410.31,-151.85 413.81,-161.85 417.31,-151.85 410.31,-151.85"/>
</g>
<!-- TraderService -->
<g id="node20" class="node">
<title>TraderService</title>
<ellipse fill="#fdb462" stroke="black" cx="270" cy="-104" rx="65.95" ry="18"/>
<text text-anchor="middle" x="270" y="-99.8" font-family="Times,serif" font-size="14.00">TraderService</text>
</g>
<!-- TraderService&#45;&gt;TraderModule -->
<g id="edge24" class="edge">
<title>TraderService&#45;&gt;TraderModule</title>
<path fill="none" stroke="black" d="M292.65,-121.25C292.65,-121.25 292.65,-151.76 292.65,-151.76"/>
<polygon fill="black" stroke="black" points="289.15,-151.76 292.65,-161.76 296.15,-151.76 289.15,-151.76"/>
</g>
<!-- TranslationService -->
<g id="node25" class="node">
<title>TranslationService</title>
<ellipse fill="#fdb462" stroke="black" cx="885" cy="-267.2" rx="83.94" ry="18"/>
<text text-anchor="middle" x="885" y="-263" font-family="Times,serif" font-size="14.00">TranslationService</text>
</g>
<!-- TranslationService&#45;&gt;TranslationAdminModule -->
<g id="edge29" class="edge">
<title>TranslationService&#45;&gt;TranslationAdminModule</title>
<path fill="none" stroke="black" d="M805.95,-273.4C778.14,-273.4 753.67,-273.4 753.67,-273.4 753.67,-273.4 753.67,-208.01 753.67,-208.01"/>
<polygon fill="black" stroke="black" points="757.17,-208.01 753.67,-198.01 750.17,-208.01 757.17,-208.01"/>
</g>
<!-- TranslationService&#45;&gt;TranslationTraderModule -->
<g id="edge34" class="edge">
<title>TranslationService&#45;&gt;TranslationTraderModule</title>
<path fill="none" stroke="black" d="M885,-249.03C885,-233.76 885,-214.4 885,-214.4 885,-214.4 2179.39,-214.4 2179.39,-214.4 2179.39,-214.4 2179.39,-208.01 2179.39,-208.01"/>
<polygon fill="black" stroke="black" points="2182.89,-208.01 2179.39,-198.01 2175.89,-208.01 2182.89,-208.01"/>
</g>
</g>
</svg>
